<svg width="22" height="28" viewBox="0 0 22 28" fill="none" xmlns="http://www.w3.org/2000/svg">
<path fill-rule="evenodd" clip-rule="evenodd" d="M11.9273 1.38947C11.7194 0.840221 11.1786 0.489894 10.5924 0.524683L9.80916 0.571158C9.22291 0.605947 8.72732 1.01777 8.58581 1.58775L4.38764 18.497C4.24605 19.0673 4.49182 19.6635 4.99422 19.9682L5.66403 20.3746C6.16642 20.6794 6.80865 20.622 7.24905 20.233L11.5224 16.4582C12.6952 15.4222 14.542 15.8794 15.0961 17.3429L18.4369 26.1676C18.6993 26.861 19.4742 27.2103 20.1676 26.9478C20.861 26.6853 21.2103 25.9104 20.9478 25.2171L16.6482 13.8595C16.3188 12.9895 16.5622 12.0064 17.2594 11.3905L19.6861 9.24693C20.2418 8.75609 20.2943 7.90774 19.8035 7.35208C19.3127 6.79642 18.4643 6.74387 17.9086 7.2347L17.5117 7.58535C16.3389 8.62135 14.492 8.16414 13.938 6.70064L11.9273 1.38947ZM9.78197 7.91216C9.99342 7.0605 11.1769 6.99027 11.4875 7.81095L12.6048 10.7623C12.8025 11.2843 12.6564 11.8742 12.2381 12.2437L9.86789 14.3374C9.20975 14.9187 8.19522 14.3032 8.40682 13.451L9.78197 7.91216Z" fill="#0E0E0E"/>
<path d="M4.92564 25.2449C4.92564 24.2563 4.12428 23.455 3.13574 23.455C2.14721 23.455 1.34584 24.2563 1.34584 25.2449C1.34584 26.2334 2.14721 27.0348 3.13574 27.0348C4.12428 27.0348 4.92564 26.2334 4.92564 25.2449Z" fill="#0E0E0E"/>
</svg>
